{
  "accessors": [
    {
      "bufferView": 2,
      "componentType": 5126,
      "count": 65533,
      "max": [
        -0.37681999802589417,
        33.09185791015625,
        17.51492691040039
      ],
      "min": [
        -8.585811614990234,
        10.39254379272461,
        0.030791999772191048
      ],
      "type": "VEC3"
    },
    {
      "bufferView": 2,
      "byteOffset": 786396,
      "componentType": 5126,
      "count": 65533,
      "max": [
        0.9979653358459473,
        0.9999958872795105,
        0.9999962449073792
      ],
      "min": [
        -0.9999982118606567,
        -0.9928127527236938,
        -0.9999995231628418
      ],
      "type": "VEC3"
    },
    {
      "bufferView": 1,
      "componentType": 5126,
      "count": 65533,
      "max": [
        0.9997209906578064,
        0.8737789988517761
      ],
      "min": [
        0.00024399999529123306,
        0.0070870001800358295
      ],
      "type": "VEC2"
    },
    {
      "bufferView": 0,
      "componentType": 5125,
      "count": 324420,
      "type": "SCALAR"
    },
    {
      "bufferView": 2,
      "byteOffset": 1572792,
      "componentType": 5126,
      "count": 65532,
      "max": [
        8.254247665405273,
        33.08885192871094,
        17.50248146057129
      ],
      "min": [
        -7.929163932800293,
        -4.718156814575195,
        -3.542172908782959
      ],
      "type": "VEC3"
    },
    {
      "bufferView": 2,
      "byteOffset": 2359176,
      "componentType": 5126,
      "count": 65532,
      "max": [
        0.9999988675117493,
        0.9999924898147583,
        0.9999772310256958
      ],
      "min": [
        -0.9972233772277832,
        -0.9999746680259705,
        -0.9999995231628418
      ],
      "type": "VEC3"
    },
    {
      "bufferView": 1,
      "byteOffset": 524264,
      "componentType": 5126,
      "count": 65532,
      "max": [
        0.9997429847717285,
        0.8731319904327393
      ],
      "min": [
        0.00024399999529123306,
        0.003295999951660633
      ],
      "type": "VEC2"
    },
    {
      "bufferView": 0,
      "byteOffset": 1297680,
      "componentType": 5125,
      "count": 289758,
      "type": "SCALAR"
    },
    {
      "bufferView": 2,
      "byteOffset": 3145560,
      "componentType": 5126,
      "count": 65532,
      "max": [
        6.39556884765625,
        10.579316139221191,
        10.628580093383789
      ],
      "min": [
        -5.399013996124268,
        -4.750328063964844,
        -4.793458938598633
      ],
      "type": "VEC3"
    },
    {
      "bufferView": 2,
      "byteOffset": 3931944,
      "componentType": 5126,
      "count": 65532,
      "max": [
        0.9999925494194031,
        0.9999984502792358,
        0.9998858571052551
      ],
      "min": [
        -0.9999995231628418,
        -0.9999985694885254,
        -0.9999961256980896
      ],
      "type": "VEC3"
    },
    {
      "bufferView": 1,
      "byteOffset": 1048520,
      "componentType": 5126,
      "count": 65532,
      "max": [
        0.999530017375946,
        0.6940919756889343
      ],
      "min": [
        0.00024399999529123306,
        0.0032019999343901873
      ],
      "type": "VEC2"
    },
    {
      "bufferView": 0,
      "byteOffset": 2456712,
      "componentType": 5125,
      "count": 289812,
      "type": "SCALAR"
    },
    {
      "bufferView": 2,
      "byteOffset": 4718328,
      "componentType": 5126,
      "count": 65532,
      "max": [
        16.302841186523438,
        33.08598709106445,
        17.57162857055664
      ],
      "min": [
        -5.416138172149658,
        -4.998976230621338,
        -4.783193111419678
      ],
      "type": "VEC3"
    },
    {
      "bufferView": 2,
      "byteOffset": 5504712,
      "componentType": 5126,
      "count": 65532,
      "max": [
        0.9999991059303284,
        0.9999953508377075,
        1.0
      ],
      "min": [
        -0.9997099041938782,
        -1.0,
        -0.9999868869781494
      ],
      "type": "VEC3"
    },
    {
      "bufferView": 1,
      "byteOffset": 1572776,
      "componentType": 5126,
      "count": 65532,
      "max": [
        0.9995499849319458,
        0.6862789988517761
      ],
      "min": [
        0.00024399999529123306,
        0.0031789999920874834
      ],
      "type": "VEC2"
    },
    {
      "bufferView": 0,
      "byteOffset": 3615960,
      "componentType": 5125,
      "count": 291132,
      "type": "SCALAR"
    },
    {
      "bufferView": 2,
      "byteOffset": 6291096,
      "componentType": 5126,
      "count": 65532,
      "max": [
        16.3519344329834,
        10.514531135559082,
        19.65937614440918
      ],
      "min": [
        -5.516533851623535,
        -6.640635013580322,
        -4.280663013458252
      ],
      "type": "VEC3"
    },
    {
      "bufferView": 2,
      "byteOffset": 7077480,
      "componentType": 5126,
      "count": 65532,
      "max": [
        0.999999463558197,
        0.999999463558197,
        0.9999972581863403
      ],
      "min": [
        -0.9999826550483704,
        -1.0,
        -0.9999997615814209
      ],
      "type": "VEC3"
    },
    {
      "bufferView": 1,
      "byteOffset": 2097032,
      "componentType": 5126,
      "count": 65532,
      "max": [
        0.9997100234031677,
        0.5640339851379395
      ],
      "min": [
        0.00024399999529123306,
        0.0022589999716728926
      ],
      "type": "VEC2"
    },
    {
      "bufferView": 0,
      "byteOffset": 4780488,
      "componentType": 5125,
      "count": 304269,
      "type": "SCALAR"
    },
    {
      "bufferView": 2,
      "byteOffset": 7863864,
      "componentType": 5126,
      "count": 65532,
      "max": [
        6.4895219802856445,
        33.065887451171875,
        20.417802810668945
      ],
      "min": [
        -9.330093383789063,
        -6.640635013580322,
        -1.0113550424575806
      ],
      "type": "VEC3"
    },
    {
      "bufferView": 2,
      "byteOffset": 8650248,
      "componentType": 5126,
      "count": 65532,
      "max": [
        0.9995327591896057,
        0.9999996423721313,
        0.9999996423721313
      ],
      "min": [
        -0.9999997615814209,
        -0.9999961256980896,
        -0.9999979734420776
      ],
      "type": "VEC3"
    },
    {
      "bufferView": 1,
      "byteOffset": 2621288,
      "componentType": 5126,
      "count": 65532,
      "max": [
        0.9997230172157288,
        0.3571780025959015
      ],
      "min": [
        0.00024399999529123306,
        0.0002530000056140125
      ],
      "type": "VEC2"
    },
    {
      "bufferView": 0,
      "byteOffset": 5997564,
      "componentType": 5125,
      "count": 304413,
      "type": "SCALAR"
    },
    {
      "bufferView": 2,
      "byteOffset": 9436632,
      "componentType": 5126,
      "count": 65532,
      "max": [
        17.246009826660156,
        33.0554084777832,
        16.869407653808594
      ],
      "min": [
        -9.318861961364746,
        -4.998976230621338,
        -1.0113550424575806
      ],
      "type": "VEC3"
    },
    {
      "bufferView": 2,
      "byteOffset": 10223016,
      "componentType": 5126,
      "count": 65532,
      "max": [
        0.9999992251396179,
        0.9999993443489075,
        0.9999995231628418
      ],
      "min": [
        -0.9999396204948425,
        -0.9999998807907104,
        -0.9999951124191284
      ],
      "type": "VEC3"
    },
    {
      "bufferView": 1,
      "byteOffset": 3145544,
      "componentType": 5126,
      "count": 65532,
      "max": [
        0.9996629953384399,
        0.26515400409698486
      ],
      "min": [
        0.00024399999529123306,
        0.00024399999529123306
      ],
      "type": "VEC2"
    },
    {
      "bufferView": 0,
      "byteOffset": 7215216,
      "componentType": 5125,
      "count": 299160,
      "type": "SCALAR"
    },
    {
      "bufferView": 2,
      "byteOffset": 11009400,
      "componentType": 5126,
      "count": 65532,
      "max": [
        17.2606143951416,
        32.99702072143555,
        20.125471115112305
      ],
      "min": [
        -5.207128047943115,
        -6.511591911315918,
        -0.564408004283905
      ],
      "type": "VEC3"
    },
    {
      "bufferView": 2,
      "byteOffset": 11795784,
      "componentType": 5126,
      "count": 65532,
      "max": [
        0.9999986290931702,
        0.9999989867210388,
        0.9999996423721313
      ],
      "min": [
        -0.9999396204948425,
        -0.9999996423721313,
        -0.9991925358772278
      ],
      "type": "VEC3"
    },
    {
      "bufferView": 1,
      "byteOffset": 3669800,
      "componentType": 5126,
      "count": 65532,
      "max": [
        0.9997209906578064,
        0.3537450134754181
      ],
      "min": [
        0.00024399999529123306,
        0.00024500000290572643
      ],
      "type": "VEC2"
    },
    {
      "bufferView": 0,
      "byteOffset": 8411856,
      "componentType": 5125,
      "count": 267186,
      "type": "SCALAR"
    },
    {
      "bufferView": 2,
      "byteOffset": 12582168,
      "componentType": 5126,
      "count": 65532,
      "max": [
        7.268458843231201,
        10.577567100524902,
        20.407573699951172
      ],
      "min": [
        -11.75256061553955,
        -6.642991065979004,
        9.717533111572266
      ],
      "type": "VEC3"
    },
    {
      "bufferView": 2,
      "byteOffset": 13368552,
      "componentType": 5126,
      "count": 65532,
      "max": [
        0.9999889731407166,
        0.9999971389770508,
        0.9999996423721313
      ],
      "min": [
        -0.9999929070472717,
        -1.0,
        -0.9999485015869141
      ],
      "type": "VEC3"
    },
    {
      "bufferView": 1,
      "byteOffset": 4194056,
      "componentType": 5126,
      "count": 65532,
      "max": [
        0.9997559785842896,
        0.3542479872703552
      ],
      "min": [
        0.00024399999529123306,
        0.00024500000290572643
      ],
      "type": "VEC2"
    },
    {
      "bufferView": 0,
      "byteOffset": 9480600,
      "componentType": 5125,
      "count": 278187,
      "type": "SCALAR"
    },
    {
      "bufferView": 2,
      "byteOffset": 14154936,
      "componentType": 5126,
      "count": 65532,
      "max": [
        16.330379486083984,
        10.560243606567383,
        15.712778091430664
      ],
      "min": [
        -12.394735336303711,
        -4.84092378616333,
        -0.09257599711418152
      ],
      "type": "VEC3"
    },
    {
      "bufferView": 2,
      "byteOffset": 14941320,
      "componentType": 5126,
      "count": 65532,
      "max": [
        0.9999953508377075,
        0.9999988675117493,
        0.9999972581863403
      ],
      "min": [
        -0.9999997615814209,
        -1.0,
        -0.9999989867210388
      ],
      "type": "VEC3"
    },
    {
      "bufferView": 1,
      "byteOffset": 4718312,
      "componentType": 5126,
      "count": 65532,
      "max": [
        0.9996989965438843,
        0.5349670052528381
      ],
      "min": [
        0.00024399999529123306,
        0.0012410000199452043
      ],
      "type": "VEC2"
    },
    {
      "bufferView": 0,
      "byteOffset": 10593348,
      "componentType": 5125,
      "count": 320265,
      "type": "SCALAR"
    },
    {
      "bufferView": 2,
      "byteOffset": 15727704,
      "componentType": 5126,
      "count": 7983,
      "max": [
        16.34592056274414,
        9.887801170349121,
        8.289048194885254
      ],
      "min": [
        10.23393440246582,
        1.3558839559555054,
        0.06500399857759476
      ],
      "type": "VEC3"
    },
    {
      "bufferView": 2,
      "byteOffset": 15823500,
      "componentType": 5126,
      "count": 7983,
      "max": [
        0.9999881386756897,
        0.9999985098838806,
        0.849159300327301
      ],
      "min": [
        -0.9968783855438232,
        -0.9057883024215698,
        -0.9999989867210388
      ],
      "type": "VEC3"
    },
    {
      "bufferView": 1,
      "byteOffset": 5242568,
      "componentType": 5126,
      "count": 7983,
      "max": [
        0.9945420026779175,
        0.5036619901657104
      ],
      "min": [
        0.00024399999529123306,
        0.035631000995635986
      ],
      "type": "VEC2"
    },
    {
      "bufferView": 0,
      "byteOffset": 11874408,
      "componentType": 5125,
      "count": 31560,
      "type": "SCALAR"
    }
  ],
  "asset": {
    "extras": {
      "author": "Metazeon (https://sketchfab.com/Metazeon)",
      "license": "CC-BY-4.0 (http://creativecommons.org/licenses/by/4.0/)",
      "source": "https://sketchfab.com/3d-models/sony-a7m4-with-gm1635-f28-93fb2cac30e741f580faf022795f7d50",
      "title": "SONY A7M4 with GM1635 f2.8"
    },
    "generator": "Sketchfab-16.59.0",
    "version": "2.0"
  },
  "bufferViews": [
    {
      "buffer": 0,
      "byteLength": 12000648,
      "name": "floatBufferViews",
      "target": 34963
    },
    {
      "buffer": 0,
      "byteLength": 5306432,
      "byteOffset": 12000648,
      "byteStride": 8,
      "name": "floatBufferViews",
      "target": 34962
    },
    {
      "buffer": 0,
      "byteLength": 15919296,
      "byteOffset": 17307080,
      "byteStride": 12,
      "name": "floatBufferViews",
      "target": 34962
    }
  ],
  "buffers": [
    {
      "byteLength": 33226376,
      "uri": "scene.bin"
    }
  ],
  "extensionsUsed": [
    "KHR_materials_specular"
  ],
  "images": [
    {
      "uri": "textures/SONY_A7M4_GM1635_RC_LOD0_u0_v0_baseColor.png"
    }
  ],
  "materials": [
    {
      "doubleSided": true,
      "extensions": {
        "KHR_materials_specular": {
          "specularColorFactor": [
            1.0,
            1.0,
            1.0
          ],
          "specularFactor": 0.1
        }
      },
      "name": "SONY_A7M4_GM1635_RC_LOD0_u0_v0",
      "pbrMetallicRoughness": {
        "baseColorFactor": [
          0.75,
          0.75,
          0.75,
          1.0
        ],
        "baseColorTexture": {
          "index": 0
        },
        "metallicFactor": 0.1,
        "roughnessFactor": 0.9
      }
    }
  ],
  "meshes": [
    {
      "name": "Object_0",
      "primitives": [
        {
          "attributes": {
            "NORMAL": 1,
            "POSITION": 0,
            "TEXCOORD_0": 2
          },
          "indices": 3,
          "material": 0,
          "mode": 4
        }
      ]
    },
    {
      "name": "Object_1",
      "primitives": [
        {
          "attributes": {
            "NORMAL": 5,
            "POSITION": 4,
            "TEXCOORD_0": 6
          },
          "indices": 7,
          "material": 0,
          "mode": 4
        }
      ]
    },
    {
      "name": "Object_2",
      "primitives": [
        {
          "attributes": {
            "NORMAL": 9,
            "POSITION": 8,
            "TEXCOORD_0": 10
          },
          "indices": 11,
          "material": 0,
          "mode": 4
        }
      ]
    },
    {
      "name": "Object_3",
      "primitives": [
        {
          "attributes": {
            "NORMAL": 13,
            "POSITION": 12,
            "TEXCOORD_0": 14
          },
          "indices": 15,
          "material": 0,
          "mode": 4
        }
      ]
    },
    {
      "name": "Object_4",
      "primitives": [
        {
          "attributes": {
            "NORMAL": 17,
            "POSITION": 16,
            "TEXCOORD_0": 18
          },
          "indices": 19,
          "material": 0,
          "mode": 4
        }
      ]
    },
    {
      "name": "Object_5",
      "primitives": [
        {
          "attributes": {
            "NORMAL": 21,
            "POSITION": 20,
            "TEXCOORD_0": 22
          },
          "indices": 23,
          "material": 0,
          "mode": 4
        }
      ]
    },
    {
      "name": "Object_6",
      "primitives": [
        {
          "attributes": {
            "NORMAL": 25,
            "POSITION": 24,
            "TEXCOORD_0": 26
          },
          "indices": 27,
          "material": 0,
          "mode": 4
        }
      ]
    },
    {
      "name": "Object_7",
      "primitives": [
        {
          "attributes": {
            "NORMAL": 29,
            "POSITION": 28,
            "TEXCOORD_0": 30
          },
          "indices": 31,
          "material": 0,
          "mode": 4
        }
      ]
    },
    {
      "name": "Object_8",
      "primitives": [
        {
          "attributes": {
            "NORMAL": 33,
            "POSITION": 32,
            "TEXCOORD_0": 34
          },
          "indices": 35,
          "material": 0,
          "mode": 4
        }
      ]
    },
    {
      "name": "Object_9",
      "primitives": [
        {
          "attributes": {
            "NORMAL": 37,
            "POSITION": 36,
            "TEXCOORD_0": 38
          },
          "indices": 39,
          "material": 0,
          "mode": 4
        }
      ]
    },
    {
      "name": "Object_10",
      "primitives": [
        {
          "attributes": {
            "NORMAL": 41,
            "POSITION": 40,
            "TEXCOORD_0": 42
          },
          "indices": 43,
          "material": 0,
          "mode": 4
        }
      ]
    }
  ],
  "nodes": [
    {
      "children": [
        1
      ],
      "matrix": [
        1.0,
        -6.290011496532519e-32,
        2.832769343193999e-16,
        0.0,
        2.832769343193999e-16,
        2.220446049250313e-16,
        -1.0,
        0.0,
        0.0,
        1.0,
        2.220446049250313e-16,
        0.0,
        0.0,
        0.0,
        0.0,
        1.0
      ],
      "name": "Sketchfab_model"
    },
    {
      "children": [
        2,
        3,
        4,
        5,
        6,
        7,
        8,
        9,
        10,
        11,
        12
      ],
      "name": "SONY_A7M4_GM1635_RC_LOD0.obj.cleaner.materialmerger.gles"
    },
    {
      "mesh": 0,
      "name": "Object_2"
    },
    {
      "mesh": 1,
      "name": "Object_3"
    },
    {
      "mesh": 2,
      "name": "Object_4"
    },
    {
      "mesh": 3,
      "name": "Object_5"
    },
    {
      "mesh": 4,
      "name": "Object_6"
    },
    {
      "mesh": 5,
      "name": "Object_7"
    },
    {
      "mesh": 6,
      "name": "Object_8"
    },
    {
      "mesh": 7,
      "name": "Object_9"
    },
    {
      "mesh": 8,
      "name": "Object_10"
    },
    {
      "mesh": 9,
      "name": "Object_11"
    },
    {
      "mesh": 10,
      "name": "Object_12"
    }
  ],
  "samplers": [
    {
      "magFilter": 9729,
      "minFilter": 9987,
      "wrapS": 10497,
      "wrapT": 10497
    }
  ],
  "scene": 0,
  "scenes": [
    {
      "name": "Sketchfab_Scene",
      "nodes": [
        0
      ]
    }
  ],
  "textures": [
    {
      "sampler": 0,
      "source": 0
    }
  ]
}
